<svg xmlns="http://www.w3.org/2000/svg" width="1240" height="614" viewBox="0 0 1240 614">
  <rect width="1240" height="614" fill="#f6f8fb" />
  <text x="40" y="42" font-size="28" font-family="Helvetica, Arial, sans-serif" fill="#132238">Callback Timeline</text>
  <text x="40" y="68" font-size="14" font-family="Helvetica, Arial, sans-serif" fill="#48607a">Python profile callback order across both federates and the suite scenarios.</text>
  <line x1="140" y1="110" x2="1140" y2="110" stroke="#d8e0ea" stroke-width="2" /><text x="36" y="128" font-size="13" font-family="Helvetica, Arial, sans-serif" fill="#132238">Exchange / time</text> <line x1="140" y1="174" x2="1140" y2="174" stroke="#d8e0ea" stroke-width="2" /><text x="36" y="192" font-size="13" font-family="Helvetica, Arial, sans-serif" fill="#132238">Synchronization</text> <line x1="140" y1="238" x2="1140" y2="238" stroke="#d8e0ea" stroke-width="2" /><text x="36" y="256" font-size="13" font-family="Helvetica, Arial, sans-serif" fill="#132238">Ownership</text> <line x1="140" y1="302" x2="1140" y2="302" stroke="#d8e0ea" stroke-width="2" /><text x="36" y="320" font-size="13" font-family="Helvetica, Arial, sans-serif" fill="#132238">Negotiated ownership</text> <line x1="140" y1="366" x2="1140" y2="366" stroke="#d8e0ea" stroke-width="2" /><text x="36" y="384" font-size="13" font-family="Helvetica, Arial, sans-serif" fill="#132238">Save / restore</text> <line x1="140" y1="430" x2="1140" y2="430" stroke="#d8e0ea" stroke-width="2" /><text x="36" y="448" font-size="13" font-family="Helvetica, Arial, sans-serif" fill="#132238">DDM region filter</text>
  <line x1="140" y1="92" x2="140" y2="486" stroke="#9fb2c6" stroke-width="2" />
  <line x1="1140" y1="92" x2="1140" y2="486" stroke="#9fb2c6" stroke-width="2" />
  <text x="140" y="84" font-size="12" fill="#48607a">1</text>
  <text x="1128" y="84" font-size="12" fill="#48607a">60</text>
  <circle cx="156.3" cy="122.0" r="7" fill="#2f6fed" opacity="0.92" /><text x="156.3" y="126.0" text-anchor="middle" font-size="9" fill="#ffffff">1</text> <circle cx="172.7" cy="122.0" r="7" fill="#2f6fed" opacity="0.92" /><text x="172.7" y="126.0" text-anchor="middle" font-size="9" fill="#ffffff">2</text> <circle cx="189.0" cy="122.0" r="7" fill="#2f6fed" opacity="0.92" /><text x="189.0" y="126.0" text-anchor="middle" font-size="9" fill="#ffffff">3</text> <circle cx="205.3" cy="122.0" r="7" fill="#e85d04" opacity="0.92" /><text x="205.3" y="126.0" text-anchor="middle" font-size="9" fill="#ffffff">4</text> <circle cx="221.7" cy="122.0" r="7" fill="#e85d04" opacity="0.92" /><text x="221.7" y="126.0" text-anchor="middle" font-size="9" fill="#ffffff">5</text> <circle cx="238.0" cy="122.0" r="7" fill="#e85d04" opacity="0.92" /><text x="238.0" y="126.0" text-anchor="middle" font-size="9" fill="#ffffff">6</text> <circle cx="254.3" cy="122.0" r="7" fill="#2f6fed" opacity="0.92" /><text x="254.3" y="126.0" text-anchor="middle" font-size="9" fill="#ffffff">7</text> <circle cx="270.7" cy="122.0" r="7" fill="#e85d04" opacity="0.92" /><text x="270.7" y="126.0" text-anchor="middle" font-size="9" fill="#ffffff">8</text> <circle cx="287.0" cy="122.0" r="7" fill="#2f6fed" opacity="0.92" /><text x="287.0" y="126.0" text-anchor="middle" font-size="9" fill="#ffffff">9</text> <circle cx="303.3" cy="122.0" r="7" fill="#e85d04" opacity="0.92" /><text x="303.3" y="126.0" text-anchor="middle" font-size="9" fill="#ffffff">10</text> <circle cx="319.7" cy="122.0" r="7" fill="#e85d04" opacity="0.92" /><text x="319.7" y="126.0" text-anchor="middle" font-size="9" fill="#ffffff">11</text> <circle cx="336.0" cy="122.0" r="7" fill="#e85d04" opacity="0.92" /><text x="336.0" y="126.0" text-anchor="middle" font-size="9" fill="#ffffff">12</text> <circle cx="352.3" cy="122.0" r="7" fill="#e85d04" opacity="0.92" /><text x="352.3" y="126.0" text-anchor="middle" font-size="9" fill="#ffffff">13</text> <circle cx="368.7" cy="186.0" r="7" fill="#2f6fed" opacity="0.92" /><text x="368.7" y="190.0" text-anchor="middle" font-size="9" fill="#ffffff">14</text> <circle cx="385.0" cy="186.0" r="7" fill="#e85d04" opacity="0.92" /><text x="385.0" y="190.0" text-anchor="middle" font-size="9" fill="#ffffff">15</text> <circle cx="401.3" cy="186.0" r="7" fill="#2f6fed" opacity="0.92" /><text x="401.3" y="190.0" text-anchor="middle" font-size="9" fill="#ffffff">16</text> <circle cx="417.7" cy="186.0" r="7" fill="#2f6fed" opacity="0.92" /><text x="417.7" y="190.0" text-anchor="middle" font-size="9" fill="#ffffff">17</text> <circle cx="434.0" cy="186.0" r="7" fill="#e85d04" opacity="0.92" /><text x="434.0" y="190.0" text-anchor="middle" font-size="9" fill="#ffffff">18</text> <circle cx="450.3" cy="250.0" r="7" fill="#2f6fed" opacity="0.92" /><text x="450.3" y="254.0" text-anchor="middle" font-size="9" fill="#ffffff">19</text> <circle cx="466.7" cy="250.0" r="7" fill="#2f6fed" opacity="0.92" /><text x="466.7" y="254.0" text-anchor="middle" font-size="9" fill="#ffffff">20</text> <circle cx="483.0" cy="250.0" r="7" fill="#e85d04" opacity="0.92" /><text x="483.0" y="254.0" text-anchor="middle" font-size="9" fill="#ffffff">21</text> <circle cx="499.3" cy="250.0" r="7" fill="#2f6fed" opacity="0.92" /><text x="499.3" y="254.0" text-anchor="middle" font-size="9" fill="#ffffff">22</text> <circle cx="515.7" cy="250.0" r="7" fill="#e85d04" opacity="0.92" /><text x="515.7" y="254.0" text-anchor="middle" font-size="9" fill="#ffffff">23</text> <circle cx="532.0" cy="250.0" r="7" fill="#2f6fed" opacity="0.92" /><text x="532.0" y="254.0" text-anchor="middle" font-size="9" fill="#ffffff">24</text> <circle cx="548.3" cy="314.0" r="7" fill="#2f6fed" opacity="0.92" /><text x="548.3" y="318.0" text-anchor="middle" font-size="9" fill="#ffffff">25</text> <circle cx="564.7" cy="314.0" r="7" fill="#2f6fed" opacity="0.92" /><text x="564.7" y="318.0" text-anchor="middle" font-size="9" fill="#ffffff">26</text> <circle cx="581.0" cy="314.0" r="7" fill="#e85d04" opacity="0.92" /><text x="581.0" y="318.0" text-anchor="middle" font-size="9" fill="#ffffff">27</text> <circle cx="597.3" cy="314.0" r="7" fill="#e85d04" opacity="0.92" /><text x="597.3" y="318.0" text-anchor="middle" font-size="9" fill="#ffffff">28</text> <circle cx="613.7" cy="314.0" r="7" fill="#2f6fed" opacity="0.92" /><text x="613.7" y="318.0" text-anchor="middle" font-size="9" fill="#ffffff">29</text> <circle cx="630.0" cy="314.0" r="7" fill="#e85d04" opacity="0.92" /><text x="630.0" y="318.0" text-anchor="middle" font-size="9" fill="#ffffff">30</text> <circle cx="646.3" cy="314.0" r="7" fill="#2f6fed" opacity="0.92" /><text x="646.3" y="318.0" text-anchor="middle" font-size="9" fill="#ffffff">31</text> <circle cx="662.7" cy="314.0" r="7" fill="#2f6fed" opacity="0.92" /><text x="662.7" y="318.0" text-anchor="middle" font-size="9" fill="#ffffff">32</text> <circle cx="679.0" cy="314.0" r="7" fill="#e85d04" opacity="0.92" /><text x="679.0" y="318.0" text-anchor="middle" font-size="9" fill="#ffffff">33</text> <circle cx="695.3" cy="314.0" r="7" fill="#e85d04" opacity="0.92" /><text x="695.3" y="318.0" text-anchor="middle" font-size="9" fill="#ffffff">34</text> <circle cx="711.7" cy="314.0" r="7" fill="#2f6fed" opacity="0.92" /><text x="711.7" y="318.0" text-anchor="middle" font-size="9" fill="#ffffff">35</text> <circle cx="728.0" cy="314.0" r="7" fill="#e85d04" opacity="0.92" /><text x="728.0" y="318.0" text-anchor="middle" font-size="9" fill="#ffffff">36</text> <circle cx="744.3" cy="314.0" r="7" fill="#2f6fed" opacity="0.92" /><text x="744.3" y="318.0" text-anchor="middle" font-size="9" fill="#ffffff">37</text> <circle cx="760.7" cy="378.0" r="7" fill="#2f6fed" opacity="0.92" /><text x="760.7" y="382.0" text-anchor="middle" font-size="9" fill="#ffffff">38</text> <circle cx="777.0" cy="378.0" r="7" fill="#2f6fed" opacity="0.92" /><text x="777.0" y="382.0" text-anchor="middle" font-size="9" fill="#ffffff">39</text> <circle cx="793.3" cy="378.0" r="7" fill="#e85d04" opacity="0.92" /><text x="793.3" y="382.0" text-anchor="middle" font-size="9" fill="#ffffff">40</text> <circle cx="809.7" cy="378.0" r="7" fill="#e85d04" opacity="0.92" /><text x="809.7" y="382.0" text-anchor="middle" font-size="9" fill="#ffffff">41</text> <circle cx="826.0" cy="378.0" r="7" fill="#2f6fed" opacity="0.92" /><text x="826.0" y="382.0" text-anchor="middle" font-size="9" fill="#ffffff">42</text> <circle cx="842.3" cy="378.0" r="7" fill="#e85d04" opacity="0.92" /><text x="842.3" y="382.0" text-anchor="middle" font-size="9" fill="#ffffff">43</text> <circle cx="858.7" cy="378.0" r="7" fill="#2f6fed" opacity="0.92" /><text x="858.7" y="382.0" text-anchor="middle" font-size="9" fill="#ffffff">44</text> <circle cx="875.0" cy="378.0" r="7" fill="#e85d04" opacity="0.92" /><text x="875.0" y="382.0" text-anchor="middle" font-size="9" fill="#ffffff">45</text> <circle cx="891.3" cy="378.0" r="7" fill="#2f6fed" opacity="0.92" /><text x="891.3" y="382.0" text-anchor="middle" font-size="9" fill="#ffffff">46</text> <circle cx="907.7" cy="378.0" r="7" fill="#e85d04" opacity="0.92" /><text x="907.7" y="382.0" text-anchor="middle" font-size="9" fill="#ffffff">47</text> <circle cx="924.0" cy="378.0" r="7" fill="#2f6fed" opacity="0.92" /><text x="924.0" y="382.0" text-anchor="middle" font-size="9" fill="#ffffff">48</text> <circle cx="940.3" cy="378.0" r="7" fill="#2f6fed" opacity="0.92" /><text x="940.3" y="382.0" text-anchor="middle" font-size="9" fill="#ffffff">49</text> <circle cx="956.7" cy="378.0" r="7" fill="#2f6fed" opacity="0.92" /><text x="956.7" y="382.0" text-anchor="middle" font-size="9" fill="#ffffff">50</text> <circle cx="973.0" cy="378.0" r="7" fill="#e85d04" opacity="0.92" /><text x="973.0" y="382.0" text-anchor="middle" font-size="9" fill="#ffffff">51</text> <circle cx="989.3" cy="378.0" r="7" fill="#e85d04" opacity="0.92" /><text x="989.3" y="382.0" text-anchor="middle" font-size="9" fill="#ffffff">52</text> <circle cx="1005.7" cy="378.0" r="7" fill="#2f6fed" opacity="0.92" /><text x="1005.7" y="382.0" text-anchor="middle" font-size="9" fill="#ffffff">53</text> <circle cx="1022.0" cy="378.0" r="7" fill="#e85d04" opacity="0.92" /><text x="1022.0" y="382.0" text-anchor="middle" font-size="9" fill="#ffffff">54</text> <circle cx="1038.3" cy="442.0" r="7" fill="#2f6fed" opacity="0.92" /><text x="1038.3" y="446.0" text-anchor="middle" font-size="9" fill="#ffffff">55</text> <circle cx="1054.7" cy="442.0" r="7" fill="#e85d04" opacity="0.92" /><text x="1054.7" y="446.0" text-anchor="middle" font-size="9" fill="#ffffff">56</text> <circle cx="1071.0" cy="442.0" r="7" fill="#2f6fed" opacity="0.92" /><text x="1071.0" y="446.0" text-anchor="middle" font-size="9" fill="#ffffff">57</text> <circle cx="1087.3" cy="442.0" r="7" fill="#2f6fed" opacity="0.92" /><text x="1087.3" y="446.0" text-anchor="middle" font-size="9" fill="#ffffff">58</text> <circle cx="1103.7" cy="442.0" r="7" fill="#e85d04" opacity="0.92" /><text x="1103.7" y="446.0" text-anchor="middle" font-size="9" fill="#ffffff">59</text> <circle cx="1120.0" cy="442.0" r="7" fill="#e85d04" opacity="0.92" /><text x="1120.0" y="446.0" text-anchor="middle" font-size="9" fill="#ffffff">60</text>
  <circle cx="140" cy="566" r="5" fill="#2f6fed" /><text x="152" y="570" font-size="11" fill="#48607a">publisher</text> <circle cx="320" cy="566" r="5" fill="#e85d04" /><text x="332" y="570" font-size="11" fill="#48607a">subscriber</text> <circle cx="500" cy="566" r="5" fill="#2f6fed" /><text x="512" y="570" font-size="11" fill="#48607a">leader</text> <circle cx="680" cy="566" r="5" fill="#e85d04" /><text x="692" y="570" font-size="11" fill="#48607a">wing</text> <circle cx="860" cy="566" r="5" fill="#2f6fed" /><text x="872" y="570" font-size="11" fill="#48607a">owner</text> <circle cx="140" cy="586" r="5" fill="#e85d04" /><text x="152" y="590" font-size="11" fill="#48607a">acquirer</text> <circle cx="320" cy="586" r="5" fill="#2f6fed" /><text x="332" y="590" font-size="11" fill="#48607a">left</text> <circle cx="500" cy="586" r="5" fill="#e85d04" /><text x="512" y="590" font-size="11" fill="#48607a">right</text> <circle cx="680" cy="586" r="5" fill="#2f6fed" /><text x="692" y="590" font-size="11" fill="#48607a">sender</text> <circle cx="860" cy="586" r="5" fill="#e85d04" /><text x="872" y="590" font-size="11" fill="#48607a">receiver</text>
</svg>
