<svg xmlns="http://www.w3.org/2000/svg" width="1270" height="560" viewBox="0 0 1270 560">
  <rect width="1270" height="560" fill="#f6f8fb" />
  <text x="40" y="44" font-size="28" font-family="Helvetica, Arial, sans-serif" fill="#132238">Two-Federate Verification Suite</text>
  <text x="40" y="72" font-size="14" font-family="Helvetica, Arial, sans-serif" fill="#48607a">Composite Python in-memory run covering exchange/time, sync, ownership, negotiated ownership, and target/radar.</text>
  <text x="40" y="112" font-size="18" font-family="Helvetica, Arial, sans-serif" fill="#132238">Scenario callback volume</text>
  <rect x="60" y="140.0" width="120" height="70.0" fill="#2f6fed" rx="8" /><text x="120.0" y="230" text-anchor="middle" font-size="12">exchange_time</text><text x="120.0" y="132.0" text-anchor="middle" font-size="12">13</text><rect x="200" y="183.1" width="120" height="26.9" fill="#2f6fed" rx="8" /><text x="260.0" y="230" text-anchor="middle" font-size="12">synchronization</text><text x="260.0" y="175.1" text-anchor="middle" font-size="12">5</text><rect x="340" y="177.7" width="120" height="32.3" fill="#2f6fed" rx="8" /><text x="400.0" y="230" text-anchor="middle" font-size="12">ownership</text><text x="400.0" y="169.7" text-anchor="middle" font-size="12">6</text><rect x="480" y="140.0" width="120" height="70.0" fill="#2f6fed" rx="8" /><text x="540.0" y="230" text-anchor="middle" font-size="12">negotiated_ownership</text><text x="540.0" y="132.0" text-anchor="middle" font-size="12">13</text><rect x="620" y="118.5" width="120" height="91.5" fill="#2f6fed" rx="8" /><text x="680.0" y="230" text-anchor="middle" font-size="12">save_restore</text><text x="680.0" y="110.5" text-anchor="middle" font-size="12">17</text><rect x="760" y="193.8" width="120" height="16.2" fill="#2f6fed" rx="8" /><text x="820.0" y="230" text-anchor="middle" font-size="12">ddm</text><text x="820.0" y="185.8" text-anchor="middle" font-size="12">3</text><rect x="900" y="70.0" width="120" height="140.0" fill="#2f6fed" rx="8" /><text x="960.0" y="230" text-anchor="middle" font-size="12">target_radar</text><text x="960.0" y="62.0" text-anchor="middle" font-size="12">26</text>
  <text x="40" y="268" font-size="18" font-family="Helvetica, Arial, sans-serif" fill="#132238">Target/radar range growth</text>
  <line x1="80" y1="280" x2="80" y2="500" stroke="#5b6b7a" stroke-width="2" />
  <line x1="80" y1="500" x2="900" y2="500" stroke="#5b6b7a" stroke-width="2" />
  <text x="60" y="288" text-anchor="end" font-size="12" fill="#48607a">11236 m</text>
  <text x="60" y="500" text-anchor="end" font-size="12" fill="#48607a">0</text>
  <polyline fill="none" stroke="#e85d04" stroke-width="3" points="80.0,294.5 353.3,289.7 626.7,284.8 900.0,280.0" />
  <circle cx="80.0" cy="294.5" r="4" fill="#e85d04" /><text x="80.0" y="284.5" text-anchor="middle" font-size="11">TRK-001</text><circle cx="353.3" cy="289.7" r="4" fill="#e85d04" /><text x="353.3" y="279.7" text-anchor="middle" font-size="11">TRK-002</text><circle cx="626.7" cy="284.8" r="4" fill="#e85d04" /><text x="626.7" y="274.8" text-anchor="middle" font-size="11">TRK-003</text><circle cx="900.0" cy="280.0" r="4" fill="#e85d04" /><text x="900.0" y="270.0" text-anchor="middle" font-size="11">TRK-004</text>
</svg>
