<svg xmlns="http://www.w3.org/2000/svg" width="1240" height="580" viewBox="0 0 1240 580">
  <rect width="1240" height="580" fill="#f6f8fb" />
  <text x="40" y="42" font-size="28" font-family="Helvetica, Arial, sans-serif" fill="#132238">Truth Trajectory vs Track Reports</text>
  <text x="40" y="68" font-size="14" font-family="Helvetica, Arial, sans-serif" fill="#48607a">Blue line: target truth positions. Orange squares: radar track outputs.</text>
  <line x1="90" y1="100" x2="90" y2="460" stroke="#5b6b7a" stroke-width="2" />
  <line x1="90" y1="460" x2="1110" y2="460" stroke="#5b6b7a" stroke-width="2" />
  <polyline fill="none" stroke="#2f6fed" stroke-width="3" points="90.0,460.0 430.0,340.0 770.0,220.0 1110.0,100.0" />
  <polyline fill="none" stroke="#e85d04" stroke-width="2" stroke-dasharray="6 4" points="90.0,460.0 430.0,340.0 770.0,220.0 1110.0,100.0" />
  <circle cx="90.0" cy="460.0" r="4" fill="#2f6fed" /><text x="90.0" y="450.0" text-anchor="middle" font-size="10" fill="#2f6fed">1s</text> <circle cx="430.0" cy="340.0" r="4" fill="#2f6fed" /><text x="430.0" y="330.0" text-anchor="middle" font-size="10" fill="#2f6fed">2s</text> <circle cx="770.0" cy="220.0" r="4" fill="#2f6fed" /><text x="770.0" y="210.0" text-anchor="middle" font-size="10" fill="#2f6fed">3s</text> <circle cx="1110.0" cy="100.0" r="4" fill="#2f6fed" /><text x="1110.0" y="90.0" text-anchor="middle" font-size="10" fill="#2f6fed">4s</text>
  <rect x="86.0" y="456.0" width="8" height="8" rx="2" fill="#e85d04" /><text x="100.0" y="464.0" font-size="10" fill="#e85d04">TRK-001</text> <rect x="426.0" y="336.0" width="8" height="8" rx="2" fill="#e85d04" /><text x="440.0" y="344.0" font-size="10" fill="#e85d04">TRK-002</text> <rect x="766.0" y="216.0" width="8" height="8" rx="2" fill="#e85d04" /><text x="780.0" y="224.0" font-size="10" fill="#e85d04">TRK-003</text> <rect x="1106.0" y="96.0" width="8" height="8" rx="2" fill="#e85d04" /><text x="1120.0" y="104.0" font-size="10" fill="#e85d04">TRK-004</text>
  <text x="90" y="488" font-size="12" fill="#48607a">X axis: target position x; Y axis: target position y.</text>
</svg>
