<svg xmlns="http://www.w3.org/2000/svg" width="1240" height="442" viewBox="0 0 1240 442">
  <rect width="1240" height="442" fill="#f6f8fb" />
  <text x="40" y="42" font-size="28" font-family="Helvetica, Arial, sans-serif" fill="#132238">Simulation Timeline</text>
  <text x="40" y="68" font-size="14" font-family="Helvetica, Arial, sans-serif" fill="#48607a">Target truth updates, radar RCS queries, and track emissions.</text>
  <line x1="140" y1="120" x2="1140" y2="120" stroke="#d8e0ea" stroke-width="2" /><text x="36" y="138" font-size="13" font-family="Helvetica, Arial, sans-serif" fill="#132238">Target truth steps</text> <line x1="140" y1="184" x2="1140" y2="184" stroke="#d8e0ea" stroke-width="2" /><text x="36" y="202" font-size="13" font-family="Helvetica, Arial, sans-serif" fill="#132238">RCS queries</text> <line x1="140" y1="248" x2="1140" y2="248" stroke="#d8e0ea" stroke-width="2" /><text x="36" y="266" font-size="13" font-family="Helvetica, Arial, sans-serif" fill="#132238">Track outputs</text>
  <line x1="140" y1="102" x2="140" y2="304" stroke="#9fb2c6" stroke-width="2" />
  <line x1="1140" y1="102" x2="1140" y2="304" stroke="#9fb2c6" stroke-width="2" />
  <text x="140" y="94" font-size="12" fill="#48607a">start</text>
  <text x="1128" y="94" font-size="12" fill="#48607a">end</text>
  <circle cx="385.0" cy="134.0" r="8" fill="#2f6fed" /><text x="385.0" y="138.0" text-anchor="middle" font-size="9" fill="#ffffff">1</text> <circle cx="630.0" cy="134.0" r="8" fill="#2f6fed" /><text x="630.0" y="138.0" text-anchor="middle" font-size="9" fill="#ffffff">2</text> <circle cx="875.0" cy="134.0" r="8" fill="#2f6fed" /><text x="875.0" y="138.0" text-anchor="middle" font-size="9" fill="#ffffff">3</text> <circle cx="1120.0" cy="134.0" r="8" fill="#2f6fed" /><text x="1120.0" y="138.0" text-anchor="middle" font-size="9" fill="#ffffff">4</text> <circle cx="357.8" cy="198.0" r="8" fill="#e85d04" /><text x="357.8" y="202.0" text-anchor="middle" font-size="9" fill="#ffffff">4</text> <rect x="377.0" y="254.0" width="16" height="16" rx="4" fill="#2b9348" /><text x="385.0" y="277.0" text-anchor="middle" font-size="9" fill="#132238">TRK-001</text> <circle cx="575.6" cy="198.0" r="8" fill="#e85d04" /><text x="575.6" y="202.0" text-anchor="middle" font-size="9" fill="#ffffff">8</text> <rect x="622.0" y="254.0" width="16" height="16" rx="4" fill="#2b9348" /><text x="630.0" y="277.0" text-anchor="middle" font-size="9" fill="#132238">TRK-002</text> <circle cx="793.3" cy="198.0" r="8" fill="#e85d04" /><text x="793.3" y="202.0" text-anchor="middle" font-size="9" fill="#ffffff">12</text> <rect x="867.0" y="254.0" width="16" height="16" rx="4" fill="#2b9348" /><text x="875.0" y="277.0" text-anchor="middle" font-size="9" fill="#132238">TRK-003</text> <circle cx="1011.1" cy="198.0" r="8" fill="#e85d04" /><text x="1011.1" y="202.0" text-anchor="middle" font-size="9" fill="#ffffff">16</text> <rect x="1112.0" y="254.0" width="16" height="16" rx="4" fill="#2b9348" /><text x="1120.0" y="277.0" text-anchor="middle" font-size="9" fill="#132238">TRK-004</text>
</svg>
